<svg xmlns="http://www.w3.org/2000/svg" xmlns:xlink="http://www.w3.org/1999/xlink" width="670" zoomAndPan="magnify" viewBox="1655 770 670 195" height="195" preserveAspectRatio="xMidYMid meet" version="1.0"><defs><g/></defs><g fill="#cca300" fill-opacity="1"><g transform="translate(1665.379475, 948.750448)"><g><path d="M 89.828125 2.40625 C 74.378906 2.40625 60.535156 -1.015625 48.296875 -7.859375 C 36.054688 -14.703125 26.398438 -24.660156 19.328125 -37.734375 C 12.253906 -50.816406 8.71875 -66.691406 8.71875 -85.359375 C 8.71875 -104.171875 12.289062 -120.113281 19.4375 -133.1875 C 26.59375 -146.269531 36.289062 -156.234375 48.53125 -163.078125 C 60.769531 -169.921875 74.535156 -173.34375 89.828125 -173.34375 C 100.003906 -173.34375 109.453125 -171.910156 118.171875 -169.046875 C 126.890625 -166.179688 134.570312 -162.03125 141.21875 -156.59375 C 147.875 -151.164062 153.304688 -144.550781 157.515625 -136.75 C 161.722656 -128.945312 164.4375 -120.078125 165.65625 -110.140625 L 124.59375 -110.140625 C 123.90625 -114.421875 122.601562 -118.257812 120.6875 -121.65625 C 118.78125 -125.0625 116.375 -127.945312 113.46875 -130.3125 C 110.5625 -132.6875 107.191406 -134.503906 103.359375 -135.765625 C 99.535156 -137.035156 95.332031 -137.671875 90.75 -137.671875 C 82.332031 -137.671875 75.082031 -135.601562 69 -131.46875 C 62.925781 -127.34375 58.265625 -121.378906 55.015625 -113.578125 C 51.765625 -105.773438 50.140625 -96.367188 50.140625 -85.359375 C 50.140625 -74.109375 51.78125 -64.601562 55.0625 -56.84375 C 58.351562 -49.082031 63.019531 -43.210938 69.0625 -39.234375 C 75.101562 -35.253906 82.289062 -33.265625 90.625 -33.265625 C 95.21875 -33.265625 99.40625 -33.894531 103.1875 -35.15625 C 106.976562 -36.425781 110.363281 -38.242188 113.34375 -40.609375 C 116.332031 -42.984375 118.78125 -45.867188 120.6875 -49.265625 C 122.601562 -52.671875 123.941406 -56.476562 124.703125 -60.6875 L 165.78125 -60.6875 C 164.9375 -52.582031 162.617188 -44.78125 158.828125 -37.28125 C 155.046875 -29.789062 149.921875 -23.039062 143.453125 -17.03125 C 136.992188 -11.03125 129.269531 -6.289062 120.28125 -2.8125 C 111.300781 0.664062 101.148438 2.40625 89.828125 2.40625 Z M 89.828125 2.40625 "/></g></g></g><g fill="#cca300" fill-opacity="1"><g transform="translate(1832.077146, 948.750448)"><g><path d="M 4.359375 0 L 61.71875 -170.9375 L 115.984375 -170.9375 L 174.84375 0 L 129.171875 0 L 105.546875 -74.796875 C 101.796875 -87.265625 98.125 -100.363281 94.53125 -114.09375 C 90.9375 -127.820312 87.34375 -142.21875 83.75 -157.28125 L 93.265625 -157.28125 C 89.671875 -142.21875 86.207031 -127.800781 82.875 -114.03125 C 79.550781 -100.269531 76.054688 -87.191406 72.390625 -74.796875 L 49.328125 0 Z M 43.359375 -35.5625 L 43.359375 -66.765625 L 135.71875 -66.765625 L 135.71875 -35.5625 Z M 43.359375 -35.5625 "/></g></g></g><g fill="#cca300" fill-opacity="1"><g transform="translate(2011.280001, 948.750448)"><g><path d="M 12.84375 0 L 12.84375 -170.9375 L 82.9375 -170.9375 C 95.863281 -170.9375 107.007812 -168.625 116.375 -164 C 125.75 -159.375 132.976562 -152.796875 138.0625 -144.265625 C 143.15625 -135.734375 145.703125 -125.617188 145.703125 -113.921875 C 145.703125 -102.222656 143.097656 -92.222656 137.890625 -83.921875 C 132.691406 -75.617188 125.289062 -69.285156 115.6875 -64.921875 C 106.09375 -60.566406 94.679688 -58.390625 81.453125 -58.390625 L 37.171875 -58.390625 L 37.171875 -90.515625 L 75.609375 -90.515625 C 81.796875 -90.515625 86.992188 -91.375 91.203125 -93.09375 C 95.410156 -94.8125 98.601562 -97.410156 100.78125 -100.890625 C 102.957031 -104.378906 104.046875 -108.722656 104.046875 -113.921875 C 104.046875 -119.203125 102.957031 -123.597656 100.78125 -127.109375 C 98.601562 -130.628906 95.410156 -133.304688 91.203125 -135.140625 C 86.992188 -136.972656 81.796875 -137.890625 75.609375 -137.890625 L 53.46875 -137.890625 L 53.46875 0 Z M 107.15625 0 L 66.1875 -77.890625 L 109.453125 -77.890625 L 151.3125 0 Z M 107.15625 0 "/></g></g><g transform="translate(2166.619753, 948.750448)"><g><path d="M 12.84375 0 L 12.84375 -170.9375 L 133.421875 -170.9375 L 133.421875 -137.4375 L 53.46875 -137.4375 L 53.46875 -102.5625 L 127.109375 -102.5625 L 127.109375 -69.859375 L 53.46875 -69.859375 L 53.46875 -33.5 L 133.3125 -33.5 L 133.3125 0 Z M 12.84375 0 "/></g></g></g></svg>