<svg xmlns="http://www.w3.org/2000/svg" xmlns:xlink="http://www.w3.org/1999/xlink" width="3456" zoomAndPan="magnify" viewBox="0 0 2592 1727.999927" height="2304" preserveAspectRatio="xMidYMid meet" version="1.0"><defs><g/></defs><g fill="#ffffff" fill-opacity="1"><g transform="translate(863.15559, 954.001096)"><g><path d="M 95.5625 2.5625 C 79.125 2.5625 64.394531 -1.078125 51.375 -8.359375 C 38.363281 -15.640625 28.09375 -26.238281 20.5625 -40.15625 C 13.039062 -54.070312 9.28125 -70.953125 9.28125 -90.796875 C 9.28125 -110.816406 13.082031 -127.78125 20.6875 -141.6875 C 28.289062 -155.601562 38.601562 -166.203125 51.625 -173.484375 C 64.644531 -180.765625 79.289062 -184.40625 95.5625 -184.40625 C 106.382812 -184.40625 116.429688 -182.878906 125.703125 -179.828125 C 134.984375 -176.785156 143.160156 -172.375 150.234375 -166.59375 C 157.316406 -160.8125 163.09375 -153.769531 167.5625 -145.46875 C 172.039062 -137.175781 174.929688 -127.742188 176.234375 -117.171875 L 132.546875 -117.171875 C 131.804688 -121.722656 130.421875 -125.804688 128.390625 -129.421875 C 126.359375 -133.046875 123.796875 -136.117188 120.703125 -138.640625 C 117.609375 -141.160156 114.023438 -143.09375 109.953125 -144.4375 C 105.890625 -145.78125 101.421875 -146.453125 96.546875 -146.453125 C 87.585938 -146.453125 79.875 -144.253906 73.40625 -139.859375 C 66.9375 -135.472656 61.972656 -129.128906 58.515625 -120.828125 C 55.054688 -112.523438 53.328125 -102.515625 53.328125 -90.796875 C 53.328125 -78.835938 55.078125 -68.726562 58.578125 -60.46875 C 62.078125 -52.21875 67.039062 -45.972656 73.46875 -41.734375 C 79.894531 -37.503906 87.546875 -35.390625 96.421875 -35.390625 C 101.296875 -35.390625 105.75 -36.0625 109.78125 -37.40625 C 113.8125 -38.75 117.410156 -40.679688 120.578125 -43.203125 C 123.753906 -45.722656 126.359375 -48.789062 128.390625 -52.40625 C 130.421875 -56.03125 131.847656 -60.082031 132.671875 -64.5625 L 176.359375 -64.5625 C 175.460938 -55.9375 173 -47.632812 168.96875 -39.65625 C 164.945312 -31.6875 159.5 -24.507812 152.625 -18.125 C 145.75 -11.738281 137.53125 -6.691406 127.96875 -2.984375 C 118.40625 0.710938 107.601562 2.5625 95.5625 2.5625 Z M 95.5625 2.5625 "/></g></g><g transform="translate(1048.056954, 954.001096)"><g><path d="M 95.921875 2.5625 C 79.566406 2.5625 64.835938 -1.078125 51.734375 -8.359375 C 38.640625 -15.640625 28.289062 -26.238281 20.6875 -40.15625 C 13.082031 -54.070312 9.28125 -70.953125 9.28125 -90.796875 C 9.28125 -110.734375 13.082031 -127.675781 20.6875 -141.625 C 28.289062 -155.582031 38.640625 -166.203125 51.734375 -173.484375 C 64.835938 -180.765625 79.566406 -184.40625 95.921875 -184.40625 C 112.203125 -184.40625 126.867188 -180.765625 139.921875 -173.484375 C 152.984375 -166.203125 163.335938 -155.582031 170.984375 -141.625 C 178.628906 -127.675781 182.453125 -110.734375 182.453125 -90.796875 C 182.453125 -70.953125 178.628906 -54.070312 170.984375 -40.15625 C 163.335938 -26.238281 152.984375 -15.640625 139.921875 -8.359375 C 126.867188 -1.078125 112.203125 2.5625 95.921875 2.5625 Z M 95.921875 -35.390625 C 104.710938 -35.390625 112.28125 -37.523438 118.625 -41.796875 C 124.976562 -46.066406 129.863281 -52.332031 133.28125 -60.59375 C 136.695312 -68.851562 138.40625 -78.921875 138.40625 -90.796875 C 138.40625 -102.765625 136.695312 -112.894531 133.28125 -121.1875 C 129.863281 -129.488281 124.976562 -135.773438 118.625 -140.046875 C 112.28125 -144.316406 104.710938 -146.453125 95.921875 -146.453125 C 87.140625 -146.453125 79.570312 -144.316406 73.21875 -140.046875 C 66.875 -135.773438 61.972656 -129.488281 58.515625 -121.1875 C 55.054688 -112.894531 53.328125 -102.765625 53.328125 -90.796875 C 53.328125 -78.921875 55.054688 -68.851562 58.515625 -60.59375 C 61.972656 -52.332031 66.875 -46.066406 73.21875 -41.796875 C 79.570312 -37.523438 87.140625 -35.390625 95.921875 -35.390625 Z M 95.921875 -35.390625 "/></g></g><g transform="translate(1239.792955, 954.001096)"><g><path d="M 95.5625 2.5625 C 79.125 2.5625 64.394531 -1.078125 51.375 -8.359375 C 38.363281 -15.640625 28.09375 -26.238281 20.5625 -40.15625 C 13.039062 -54.070312 9.28125 -70.953125 9.28125 -90.796875 C 9.28125 -110.816406 13.082031 -127.78125 20.6875 -141.6875 C 28.289062 -155.601562 38.601562 -166.203125 51.625 -173.484375 C 64.644531 -180.765625 79.289062 -184.40625 95.5625 -184.40625 C 106.382812 -184.40625 116.429688 -182.878906 125.703125 -179.828125 C 134.984375 -176.785156 143.160156 -172.375 150.234375 -166.59375 C 157.316406 -160.8125 163.09375 -153.769531 167.5625 -145.46875 C 172.039062 -137.175781 174.929688 -127.742188 176.234375 -117.171875 L 132.546875 -117.171875 C 131.804688 -121.722656 130.421875 -125.804688 128.390625 -129.421875 C 126.359375 -133.046875 123.796875 -136.117188 120.703125 -138.640625 C 117.609375 -141.160156 114.023438 -143.09375 109.953125 -144.4375 C 105.890625 -145.78125 101.421875 -146.453125 96.546875 -146.453125 C 87.585938 -146.453125 79.875 -144.253906 73.40625 -139.859375 C 66.9375 -135.472656 61.972656 -129.128906 58.515625 -120.828125 C 55.054688 -112.523438 53.328125 -102.515625 53.328125 -90.796875 C 53.328125 -78.835938 55.078125 -68.726562 58.578125 -60.46875 C 62.078125 -52.21875 67.039062 -45.972656 73.46875 -41.734375 C 79.894531 -37.503906 87.546875 -35.390625 96.421875 -35.390625 C 101.296875 -35.390625 105.75 -36.0625 109.78125 -37.40625 C 113.8125 -38.75 117.410156 -40.679688 120.578125 -43.203125 C 123.753906 -45.722656 126.359375 -48.789062 128.390625 -52.40625 C 130.421875 -56.03125 131.847656 -60.082031 132.671875 -64.5625 L 176.359375 -64.5625 C 175.460938 -55.9375 173 -47.632812 168.96875 -39.65625 C 164.945312 -31.6875 159.5 -24.507812 152.625 -18.125 C 145.75 -11.738281 137.53125 -6.691406 127.96875 -2.984375 C 118.40625 0.710938 107.601562 2.5625 95.5625 2.5625 Z M 95.5625 2.5625 "/></g></g><g transform="translate(1424.694319, 954.001096)"><g><path d="M 95.921875 2.5625 C 79.566406 2.5625 64.835938 -1.078125 51.734375 -8.359375 C 38.640625 -15.640625 28.289062 -26.238281 20.6875 -40.15625 C 13.082031 -54.070312 9.28125 -70.953125 9.28125 -90.796875 C 9.28125 -110.734375 13.082031 -127.675781 20.6875 -141.625 C 28.289062 -155.582031 38.640625 -166.203125 51.734375 -173.484375 C 64.835938 -180.765625 79.566406 -184.40625 95.921875 -184.40625 C 112.203125 -184.40625 126.867188 -180.765625 139.921875 -173.484375 C 152.984375 -166.203125 163.335938 -155.582031 170.984375 -141.625 C 178.628906 -127.675781 182.453125 -110.734375 182.453125 -90.796875 C 182.453125 -70.953125 178.628906 -54.070312 170.984375 -40.15625 C 163.335938 -26.238281 152.984375 -15.640625 139.921875 -8.359375 C 126.867188 -1.078125 112.203125 2.5625 95.921875 2.5625 Z M 95.921875 -35.390625 C 104.710938 -35.390625 112.28125 -37.523438 118.625 -41.796875 C 124.976562 -46.066406 129.863281 -52.332031 133.28125 -60.59375 C 136.695312 -68.851562 138.40625 -78.921875 138.40625 -90.796875 C 138.40625 -102.765625 136.695312 -112.894531 133.28125 -121.1875 C 129.863281 -129.488281 124.976562 -135.773438 118.625 -140.046875 C 112.28125 -144.316406 104.710938 -146.453125 95.921875 -146.453125 C 87.140625 -146.453125 79.570312 -144.316406 73.21875 -140.046875 C 66.875 -135.773438 61.972656 -129.488281 58.515625 -121.1875 C 55.054688 -112.894531 53.328125 -102.765625 53.328125 -90.796875 C 53.328125 -78.921875 55.054688 -68.851562 58.515625 -60.59375 C 61.972656 -52.332031 66.875 -46.066406 73.21875 -41.796875 C 79.570312 -37.523438 87.140625 -35.390625 95.921875 -35.390625 Z M 95.921875 -35.390625 "/></g></g></g></svg>